<?xml version="1.0" encoding="UTF-8" standalone="no"?>
<!DOCTYPE svg PUBLIC "-//W3C//DTD SVG 1.1//EN"
 "http://www.w3.org/Graphics/SVG/1.1/DTD/svg11.dtd">
<!-- Generated by graphviz version 2.40.1 (20161225.0304)
 -->
<!-- Title: dependencies Pages: 1 -->
<svg width="3555pt" height="284pt"
 viewBox="0.00 0.00 3555.00 284.00" xmlns="http://www.w3.org/2000/svg" xmlns:xlink="http://www.w3.org/1999/xlink">
<g id="graph0" class="graph" transform="scale(1 1) rotate(0) translate(4 280)">
<title>dependencies</title>
<polygon fill="#ffffff" stroke="transparent" points="-4,4 -4,-280 3551,-280 3551,4 -4,4"/>
<text text-anchor="start" x="1752.5091" y="-42.4" font-family="sans-serif" font-weight="bold" font-size="14.00" fill="#000000">Legend</text>
<polygon fill="#ffffb3" stroke="transparent" points="1539.5,-10 1539.5,-30 1559.5,-30 1559.5,-10 1539.5,-10"/>
<text text-anchor="start" x="1563.129" y="-15.4" font-family="sans-serif" font-size="14.00" fill="#000000"> &#160;Declarations</text>
<polygon fill="#8dd3c7" stroke="transparent" points="1652.5,-10 1652.5,-30 1672.5,-30 1672.5,-10 1652.5,-10"/>
<text text-anchor="start" x="1676.2251" y="-15.4" font-family="sans-serif" font-size="14.00" fill="#000000"> &#160;Module</text>
<polygon fill="#80b1d3" stroke="transparent" points="1738.5,-10 1738.5,-30 1758.5,-30 1758.5,-10 1738.5,-10"/>
<text text-anchor="start" x="1762.2812" y="-15.4" font-family="sans-serif" font-size="14.00" fill="#000000"> &#160;Bootstrap</text>
<polygon fill="#fdb462" stroke="transparent" points="1835.5,-10 1835.5,-30 1855.5,-30 1855.5,-10 1835.5,-10"/>
<text text-anchor="start" x="1859.1732" y="-15.4" font-family="sans-serif" font-size="14.00" fill="#000000"> &#160;Providers</text>
<polygon fill="#fb8072" stroke="transparent" points="1931.5,-10 1931.5,-30 1951.5,-30 1951.5,-10 1931.5,-10"/>
<text text-anchor="start" x="1955.2258" y="-15.4" font-family="sans-serif" font-size="14.00" fill="#000000"> &#160;Exports</text>
<g id="clust1" class="cluster">
<title>cluster_AppModule</title>
<polygon fill="none" stroke="#000000" stroke-dasharray="1,5" points="8,-70 8,-268 3539,-268 3539,-70 8,-70"/>
</g>
<g id="clust2" class="cluster">
<title>cluster_AppModule_declarations</title>
<polygon fill="none" stroke="#000000" points="597,-78 597,-130 3531,-130 3531,-78 597,-78"/>
</g>
<g id="clust23" class="cluster">
<title>cluster_AppModule_imports</title>
<polygon fill="none" stroke="#000000" points="445,-78 445,-130 589,-130 589,-78 445,-78"/>
</g>
<g id="clust25" class="cluster">
<title>cluster_AppModule_bootstrap</title>
<polygon fill="none" stroke="#000000" points="1705,-208 1705,-260 1829,-260 1829,-208 1705,-208"/>
</g>
<g id="clust26" class="cluster">
<title>cluster_AppModule_providers</title>
<polygon fill="none" stroke="#000000" points="16,-78 16,-130 437,-130 437,-78 16,-78"/>
</g>
<!-- AppComponent -->
<g id="node1" class="node">
<title>AppComponent</title>
<polygon fill="#ffffb3" stroke="#000000" points="3522.9399,-122 3417.0601,-122 3417.0601,-86 3522.9399,-86 3522.9399,-122"/>
<text text-anchor="middle" x="3470" y="-99.8" font-family="Times,serif" font-size="14.00" fill="#000000">AppComponent</text>
</g>
<!-- AppModule -->
<g id="node21" class="node">
<title>AppModule</title>
<polygon fill="#8dd3c7" stroke="#000000" points="1808.6571,-187 1805.6571,-191 1784.6571,-191 1781.6571,-187 1725.3429,-187 1725.3429,-151 1808.6571,-151 1808.6571,-187"/>
<text text-anchor="middle" x="1767" y="-164.8" font-family="Times,serif" font-size="14.00" fill="#000000">AppModule</text>
</g>
<!-- AppComponent&#45;&gt;AppModule -->
<g id="edge1" class="edge">
<title>AppComponent&#45;&gt;AppModule</title>
<path fill="none" stroke="#000000" d="M3470,-122.1532C3470,-145.7566 3470,-184 3470,-184 3470,-184 1818.674,-184 1818.674,-184"/>
<polygon fill="#000000" stroke="#000000" points="1818.674,-180.5001 1808.674,-184 1818.6739,-187.5001 1818.674,-180.5001"/>
</g>
<!-- HeaderComponent -->
<g id="node2" class="node">
<title>HeaderComponent</title>
<polygon fill="#ffffb3" stroke="#000000" points="3398.7437,-122 3277.2563,-122 3277.2563,-86 3398.7437,-86 3398.7437,-122"/>
<text text-anchor="middle" x="3338" y="-99.8" font-family="Times,serif" font-size="14.00" fill="#000000">HeaderComponent</text>
</g>
<!-- HeaderComponent&#45;&gt;AppModule -->
<g id="edge2" class="edge">
<title>HeaderComponent&#45;&gt;AppModule</title>
<path fill="none" stroke="#000000" d="M3338,-122.2479C3338,-145.0179 3338,-181 3338,-181 3338,-181 1819.0205,-181 1819.0205,-181"/>
<polygon fill="#000000" stroke="#000000" points="1819.0205,-177.5001 1809.0205,-181 1819.0204,-184.5001 1819.0205,-177.5001"/>
</g>
<!-- LoginComponent -->
<g id="node3" class="node">
<title>LoginComponent</title>
<polygon fill="#ffffb3" stroke="#000000" points="3259.2758,-122 3144.7242,-122 3144.7242,-86 3259.2758,-86 3259.2758,-122"/>
<text text-anchor="middle" x="3202" y="-99.8" font-family="Times,serif" font-size="14.00" fill="#000000">LoginComponent</text>
</g>
<!-- LoginComponent&#45;&gt;AppModule -->
<g id="edge3" class="edge">
<title>LoginComponent&#45;&gt;AppModule</title>
<path fill="none" stroke="#000000" d="M3202,-122.2921C3202,-144.2057 3202,-178 3202,-178 3202,-178 1818.7836,-178 1818.7836,-178"/>
<polygon fill="#000000" stroke="#000000" points="1818.7836,-174.5001 1808.7836,-178 1818.7836,-181.5001 1818.7836,-174.5001"/>
</g>
<!-- NavbarComponent -->
<g id="node4" class="node">
<title>NavbarComponent</title>
<polygon fill="#ffffb3" stroke="#000000" points="3126.0297,-122 3003.9703,-122 3003.9703,-86 3126.0297,-86 3126.0297,-122"/>
<text text-anchor="middle" x="3065" y="-99.8" font-family="Times,serif" font-size="14.00" fill="#000000">NavbarComponent</text>
</g>
<!-- NavbarComponent&#45;&gt;AppModule -->
<g id="edge4" class="edge">
<title>NavbarComponent&#45;&gt;AppModule</title>
<path fill="none" stroke="#000000" d="M3065,-122.2843C3065,-143.3211 3065,-175 3065,-175 3065,-175 1818.7167,-175 1818.7167,-175"/>
<polygon fill="#000000" stroke="#000000" points="1818.7167,-171.5001 1808.7167,-175 1818.7166,-178.5001 1818.7167,-171.5001"/>
</g>
<!-- HomepageComponent -->
<g id="node5" class="node">
<title>HomepageComponent</title>
<polygon fill="#ffffb3" stroke="#000000" points="2985.9734,-122 2844.0266,-122 2844.0266,-86 2985.9734,-86 2985.9734,-122"/>
<text text-anchor="middle" x="2915" y="-99.8" font-family="Times,serif" font-size="14.00" fill="#000000">HomepageComponent</text>
</g>
<!-- HomepageComponent&#45;&gt;AppModule -->
<g id="edge5" class="edge">
<title>HomepageComponent&#45;&gt;AppModule</title>
<path fill="none" stroke="#000000" d="M2915,-122.2228C2915,-142.3652 2915,-172 2915,-172 2915,-172 1818.8771,-172 1818.8771,-172"/>
<polygon fill="#000000" stroke="#000000" points="1818.8772,-168.5001 1808.8771,-172 1818.8771,-175.5001 1818.8772,-168.5001"/>
</g>
<!-- SlidesComponent -->
<g id="node6" class="node">
<title>SlidesComponent</title>
<polygon fill="#ffffb3" stroke="#000000" points="2825.5563,-122 2710.4437,-122 2710.4437,-86 2825.5563,-86 2825.5563,-122"/>
<text text-anchor="middle" x="2768" y="-99.8" font-family="Times,serif" font-size="14.00" fill="#000000">SlidesComponent</text>
</g>
<!-- SlidesComponent&#45;&gt;AppModule -->
<g id="edge6" class="edge">
<title>SlidesComponent&#45;&gt;AppModule</title>
<path fill="none" stroke="#000000" d="M2768,-122.1061C2768,-141.3391 2768,-169 2768,-169 2768,-169 1818.7373,-169 1818.7373,-169"/>
<polygon fill="#000000" stroke="#000000" points="1818.7373,-165.5001 1808.7373,-169 1818.7373,-172.5001 1818.7373,-165.5001"/>
</g>
<!-- HomecardsComponent -->
<g id="node7" class="node">
<title>HomecardsComponent</title>
<polygon fill="#ffffb3" stroke="#000000" points="2692.5786,-122 2547.4214,-122 2547.4214,-86 2692.5786,-86 2692.5786,-122"/>
<text text-anchor="middle" x="2620" y="-99.8" font-family="Times,serif" font-size="14.00" fill="#000000">HomecardsComponent</text>
</g>
<!-- HomecardsComponent&#45;&gt;AppModule -->
<g id="edge7" class="edge">
<title>HomecardsComponent&#45;&gt;AppModule</title>
<path fill="none" stroke="#000000" d="M2620,-122.2667C2620,-140.5552 2620,-166 2620,-166 2620,-166 1818.7194,-166 1818.7194,-166"/>
<polygon fill="#000000" stroke="#000000" points="1818.7194,-162.5001 1808.7194,-166 1818.7194,-169.5001 1818.7194,-162.5001"/>
</g>
<!-- GooglemapComponent -->
<g id="node8" class="node">
<title>GooglemapComponent</title>
<polygon fill="#ffffb3" stroke="#000000" points="2529.1498,-122 2382.8502,-122 2382.8502,-86 2529.1498,-86 2529.1498,-122"/>
<text text-anchor="middle" x="2456" y="-99.8" font-family="Times,serif" font-size="14.00" fill="#000000">GooglemapComponent</text>
</g>
<!-- GooglemapComponent&#45;&gt;AppModule -->
<g id="edge8" class="edge">
<title>GooglemapComponent&#45;&gt;AppModule</title>
<path fill="none" stroke="#000000" d="M2456,-122.0225C2456,-139.3734 2456,-163 2456,-163 2456,-163 1818.8053,-163 1818.8053,-163"/>
<polygon fill="#000000" stroke="#000000" points="1818.8053,-159.5001 1808.8053,-163 1818.8053,-166.5001 1818.8053,-159.5001"/>
</g>
<!-- FooterComponent -->
<g id="node9" class="node">
<title>FooterComponent</title>
<polygon fill="#ffffb3" stroke="#000000" points="2364.8809,-122 2247.1191,-122 2247.1191,-86 2364.8809,-86 2364.8809,-122"/>
<text text-anchor="middle" x="2306" y="-99.8" font-family="Times,serif" font-size="14.00" fill="#000000">FooterComponent</text>
</g>
<!-- FooterComponent&#45;&gt;AppModule -->
<g id="edge9" class="edge">
<title>FooterComponent&#45;&gt;AppModule</title>
<path fill="none" stroke="#000000" d="M2306,-122.027C2306,-138.3976 2306,-160 2306,-160 2306,-160 1818.8459,-160 1818.8459,-160"/>
<polygon fill="#000000" stroke="#000000" points="1818.846,-156.5001 1808.8459,-160 1818.8459,-163.5001 1818.846,-156.5001"/>
</g>
<!-- RegisterComponent -->
<g id="node10" class="node">
<title>RegisterComponent</title>
<polygon fill="#ffffb3" stroke="#000000" points="2228.9846,-122 2101.0154,-122 2101.0154,-86 2228.9846,-86 2228.9846,-122"/>
<text text-anchor="middle" x="2165" y="-99.8" font-family="Times,serif" font-size="14.00" fill="#000000">RegisterComponent</text>
</g>
<!-- RegisterComponent&#45;&gt;AppModule -->
<g id="edge10" class="edge">
<title>RegisterComponent&#45;&gt;AppModule</title>
<path fill="none" stroke="#000000" d="M2165,-122.2396C2165,-137.5706 2165,-157 2165,-157 2165,-157 1818.8407,-157 1818.8407,-157"/>
<polygon fill="#000000" stroke="#000000" points="1818.8408,-153.5001 1808.8407,-157 1818.8407,-160.5001 1818.8408,-153.5001"/>
</g>
<!-- CourselistComponent -->
<g id="node11" class="node">
<title>CourselistComponent</title>
<polygon fill="#ffffb3" stroke="#000000" points="2083.1052,-122 1944.8948,-122 1944.8948,-86 2083.1052,-86 2083.1052,-122"/>
<text text-anchor="middle" x="2014" y="-99.8" font-family="Times,serif" font-size="14.00" fill="#000000">CourselistComponent</text>
</g>
<!-- CourselistComponent&#45;&gt;AppModule -->
<g id="edge11" class="edge">
<title>CourselistComponent&#45;&gt;AppModule</title>
<path fill="none" stroke="#000000" d="M2014,-122.0511C2014,-136.373 2014,-154 2014,-154 2014,-154 1818.9002,-154 1818.9002,-154"/>
<polygon fill="#000000" stroke="#000000" points="1818.9002,-150.5001 1808.9002,-154 1818.9001,-157.5001 1818.9002,-150.5001"/>
</g>
<!-- CoursedetailsComponent -->
<g id="node12" class="node">
<title>CoursedetailsComponent</title>
<polygon fill="#ffffb3" stroke="#000000" points="1926.5351,-122 1769.4649,-122 1769.4649,-86 1926.5351,-86 1926.5351,-122"/>
<text text-anchor="middle" x="1848" y="-99.8" font-family="Times,serif" font-size="14.00" fill="#000000">CoursedetailsComponent</text>
</g>
<!-- CoursedetailsComponent&#45;&gt;AppModule -->
<g id="edge12" class="edge">
<title>CoursedetailsComponent&#45;&gt;AppModule</title>
<path fill="none" stroke="#000000" d="M1789.0305,-122.1061C1789.0305,-122.1061 1789.0305,-140.991 1789.0305,-140.991"/>
<polygon fill="#000000" stroke="#000000" points="1785.5306,-140.9909 1789.0305,-150.991 1792.5306,-140.991 1785.5306,-140.9909"/>
</g>
<!-- TrainingComponent -->
<g id="node13" class="node">
<title>TrainingComponent</title>
<polygon fill="#ffffb3" stroke="#000000" points="1750.5422,-122 1621.4578,-122 1621.4578,-86 1750.5422,-86 1750.5422,-122"/>
<text text-anchor="middle" x="1686" y="-99.8" font-family="Times,serif" font-size="14.00" fill="#000000">TrainingComponent</text>
</g>
<!-- TrainingComponent&#45;&gt;AppModule -->
<g id="edge13" class="edge">
<title>TrainingComponent&#45;&gt;AppModule</title>
<path fill="none" stroke="#000000" d="M1737.9713,-122.1061C1737.9713,-122.1061 1737.9713,-140.991 1737.9713,-140.991"/>
<polygon fill="#000000" stroke="#000000" points="1734.4713,-140.9909 1737.9713,-150.991 1741.4713,-140.991 1734.4713,-140.9909"/>
</g>
<!-- DietComponent -->
<g id="node14" class="node">
<title>DietComponent</title>
<polygon fill="#ffffb3" stroke="#000000" points="1603.9357,-122 1498.0643,-122 1498.0643,-86 1603.9357,-86 1603.9357,-122"/>
<text text-anchor="middle" x="1551" y="-99.8" font-family="Times,serif" font-size="14.00" fill="#000000">DietComponent</text>
</g>
<!-- DietComponent&#45;&gt;AppModule -->
<g id="edge14" class="edge">
<title>DietComponent&#45;&gt;AppModule</title>
<path fill="none" stroke="#000000" d="M1551,-122.0511C1551,-136.373 1551,-154 1551,-154 1551,-154 1715.0969,-154 1715.0969,-154"/>
<polygon fill="#000000" stroke="#000000" points="1715.0969,-157.5001 1725.0969,-154 1715.0969,-150.5001 1715.0969,-157.5001"/>
</g>
<!-- MyplanComponent -->
<g id="node15" class="node">
<title>MyplanComponent</title>
<polygon fill="#ffffb3" stroke="#000000" points="1480.3823,-122 1355.6177,-122 1355.6177,-86 1480.3823,-86 1480.3823,-122"/>
<text text-anchor="middle" x="1418" y="-99.8" font-family="Times,serif" font-size="14.00" fill="#000000">MyplanComponent</text>
</g>
<!-- MyplanComponent&#45;&gt;AppModule -->
<g id="edge15" class="edge">
<title>MyplanComponent&#45;&gt;AppModule</title>
<path fill="none" stroke="#000000" d="M1418,-122.2396C1418,-137.5706 1418,-157 1418,-157 1418,-157 1715.2491,-157 1715.2491,-157"/>
<polygon fill="#000000" stroke="#000000" points="1715.2491,-160.5001 1725.2491,-157 1715.2491,-153.5001 1715.2491,-160.5001"/>
</g>
<!-- MycoursesComponent -->
<g id="node16" class="node">
<title>MycoursesComponent</title>
<polygon fill="#ffffb3" stroke="#000000" points="1337.2562,-122 1194.7438,-122 1194.7438,-86 1337.2562,-86 1337.2562,-122"/>
<text text-anchor="middle" x="1266" y="-99.8" font-family="Times,serif" font-size="14.00" fill="#000000">MycoursesComponent</text>
</g>
<!-- MycoursesComponent&#45;&gt;AppModule -->
<g id="edge16" class="edge">
<title>MycoursesComponent&#45;&gt;AppModule</title>
<path fill="none" stroke="#000000" d="M1266,-122.027C1266,-138.3976 1266,-160 1266,-160 1266,-160 1715.1467,-160 1715.1467,-160"/>
<polygon fill="#000000" stroke="#000000" points="1715.1468,-163.5001 1725.1467,-160 1715.1467,-156.5001 1715.1468,-163.5001"/>
</g>
<!-- MydietComponent -->
<g id="node17" class="node">
<title>MydietComponent</title>
<polygon fill="#ffffb3" stroke="#000000" points="1176.773,-122 1055.227,-122 1055.227,-86 1176.773,-86 1176.773,-122"/>
<text text-anchor="middle" x="1116" y="-99.8" font-family="Times,serif" font-size="14.00" fill="#000000">MydietComponent</text>
</g>
<!-- MydietComponent&#45;&gt;AppModule -->
<g id="edge17" class="edge">
<title>MydietComponent&#45;&gt;AppModule</title>
<path fill="none" stroke="#000000" d="M1116,-122.0225C1116,-139.3734 1116,-163 1116,-163 1116,-163 1715.2867,-163 1715.2867,-163"/>
<polygon fill="#000000" stroke="#000000" points="1715.2867,-166.5001 1725.2867,-163 1715.2867,-159.5001 1715.2867,-166.5001"/>
</g>
<!-- BlogComponent -->
<g id="node18" class="node">
<title>BlogComponent</title>
<polygon fill="#ffffb3" stroke="#000000" points="1037.0605,-122 928.9395,-122 928.9395,-86 1037.0605,-86 1037.0605,-122"/>
<text text-anchor="middle" x="983" y="-99.8" font-family="Times,serif" font-size="14.00" fill="#000000">BlogComponent</text>
</g>
<!-- BlogComponent&#45;&gt;AppModule -->
<g id="edge18" class="edge">
<title>BlogComponent&#45;&gt;AppModule</title>
<path fill="none" stroke="#000000" d="M983,-122.2667C983,-140.5552 983,-166 983,-166 983,-166 1715.1259,-166 1715.1259,-166"/>
<polygon fill="#000000" stroke="#000000" points="1715.126,-169.5001 1725.1259,-166 1715.1259,-162.5001 1715.126,-169.5001"/>
</g>
<!-- BlogdetailsComponent -->
<g id="node19" class="node">
<title>BlogdetailsComponent</title>
<polygon fill="#ffffb3" stroke="#000000" points="910.6052,-122 765.3948,-122 765.3948,-86 910.6052,-86 910.6052,-122"/>
<text text-anchor="middle" x="838" y="-99.8" font-family="Times,serif" font-size="14.00" fill="#000000">BlogdetailsComponent</text>
</g>
<!-- BlogdetailsComponent&#45;&gt;AppModule -->
<g id="edge19" class="edge">
<title>BlogdetailsComponent&#45;&gt;AppModule</title>
<path fill="none" stroke="#000000" d="M838,-122.1061C838,-141.3391 838,-169 838,-169 838,-169 1715.278,-169 1715.278,-169"/>
<polygon fill="#000000" stroke="#000000" points="1715.2781,-172.5001 1725.278,-169 1715.278,-165.5001 1715.2781,-172.5001"/>
</g>
<!-- EquipmentComponent -->
<g id="node20" class="node">
<title>EquipmentComponent</title>
<polygon fill="#ffffb3" stroke="#000000" points="747.2716,-122 604.7284,-122 604.7284,-86 747.2716,-86 747.2716,-122"/>
<text text-anchor="middle" x="676" y="-99.8" font-family="Times,serif" font-size="14.00" fill="#000000">EquipmentComponent</text>
</g>
<!-- EquipmentComponent&#45;&gt;AppModule -->
<g id="edge20" class="edge">
<title>EquipmentComponent&#45;&gt;AppModule</title>
<path fill="none" stroke="#000000" d="M676,-122.2228C676,-142.3652 676,-172 676,-172 676,-172 1715.2325,-172 1715.2325,-172"/>
<polygon fill="#000000" stroke="#000000" points="1715.2325,-175.5001 1725.2325,-172 1715.2324,-168.5001 1715.2325,-175.5001"/>
</g>
<!-- AppComponent  -->
<g id="node23" class="node">
<title>AppComponent </title>
<polygon fill="#80b1d3" stroke="#000000" points="1821.439,-252 1712.561,-252 1712.561,-216 1821.439,-216 1821.439,-252"/>
<text text-anchor="middle" x="1767" y="-229.8" font-family="Times,serif" font-size="14.00" fill="#000000">AppComponent </text>
</g>
<!-- AppModule&#45;&gt;AppComponent  -->
<g id="edge22" class="edge">
<title>AppModule&#45;&gt;AppComponent </title>
<path fill="none" stroke="#000000" stroke-dasharray="1,5" d="M1767,-187.1061C1767,-187.1061 1767,-205.991 1767,-205.991"/>
<polygon fill="#000000" stroke="#000000" points="1763.5001,-205.9909 1767,-215.991 1770.5001,-205.991 1763.5001,-205.9909"/>
</g>
<!-- AppRoutingModule -->
<g id="node22" class="node">
<title>AppRoutingModule</title>
<polygon fill="#8dd3c7" stroke="#000000" points="581.2744,-122 578.2744,-126 557.2744,-126 554.2744,-122 452.7256,-122 452.7256,-86 581.2744,-86 581.2744,-122"/>
<text text-anchor="middle" x="517" y="-99.8" font-family="Times,serif" font-size="14.00" fill="#000000">AppRoutingModule</text>
</g>
<!-- AppRoutingModule&#45;&gt;AppModule -->
<g id="edge21" class="edge">
<title>AppRoutingModule&#45;&gt;AppModule</title>
<path fill="none" stroke="#000000" d="M517,-122.2843C517,-143.3211 517,-175 517,-175 517,-175 1715.0528,-175 1715.0528,-175"/>
<polygon fill="#000000" stroke="#000000" points="1715.0529,-178.5001 1725.0528,-175 1715.0528,-171.5001 1715.0529,-178.5001"/>
</g>
<!-- CourseService -->
<g id="node24" class="node">
<title>CourseService</title>
<ellipse fill="#fdb462" stroke="#000000" cx="362" cy="-104" rx="67.1927" ry="18"/>
<text text-anchor="middle" x="362" y="-99.8" font-family="Times,serif" font-size="14.00" fill="#000000">CourseService</text>
</g>
<!-- CourseService&#45;&gt;AppModule -->
<g id="edge23" class="edge">
<title>CourseService&#45;&gt;AppModule</title>
<path fill="none" stroke="#000000" d="M362,-122.2921C362,-144.2057 362,-178 362,-178 362,-178 1715.3323,-178 1715.3323,-178"/>
<polygon fill="#000000" stroke="#000000" points="1715.3324,-181.5001 1725.3323,-178 1715.3323,-174.5001 1715.3324,-181.5001"/>
</g>
<!-- UserService -->
<g id="node25" class="node">
<title>UserService</title>
<ellipse fill="#fdb462" stroke="#000000" cx="218" cy="-104" rx="58.4415" ry="18"/>
<text text-anchor="middle" x="218" y="-99.8" font-family="Times,serif" font-size="14.00" fill="#000000">UserService</text>
</g>
<!-- UserService&#45;&gt;AppModule -->
<g id="edge24" class="edge">
<title>UserService&#45;&gt;AppModule</title>
<path fill="none" stroke="#000000" d="M218,-122.2479C218,-145.0179 218,-181 218,-181 218,-181 1715.1672,-181 1715.1672,-181"/>
<polygon fill="#000000" stroke="#000000" points="1715.1672,-184.5001 1725.1672,-181 1715.1672,-177.5001 1715.1672,-184.5001"/>
</g>
<!-- BlogService -->
<g id="node26" class="node">
<title>BlogService</title>
<ellipse fill="#fdb462" stroke="#000000" cx="83" cy="-104" rx="58.5463" ry="18"/>
<text text-anchor="middle" x="83" y="-99.8" font-family="Times,serif" font-size="14.00" fill="#000000">BlogService</text>
</g>
<!-- BlogService&#45;&gt;AppModule -->
<g id="edge25" class="edge">
<title>BlogService&#45;&gt;AppModule</title>
<path fill="none" stroke="#000000" d="M83,-122.1532C83,-145.7566 83,-184 83,-184 83,-184 1714.9527,-184 1714.9527,-184"/>
<polygon fill="#000000" stroke="#000000" points="1714.9527,-187.5001 1724.9527,-184 1714.9526,-180.5001 1714.9527,-187.5001"/>
</g>
</g>
</svg>
